<svg data-v-fde0c5aa="" xmlns="http://www.w3.org/2000/svg" viewBox="0 0 300 300" class="iconAboveSlogan"><!----><defs data-v-fde0c5aa=""><linearGradient data-v-fde0c5aa="" gradientTransform="rotate(25)" id="63e04cd7-ea9d-41e1-960d-82062cf3c59d" x1="0%" y1="0%" x2="100%" y2="0%"><stop data-v-fde0c5aa="" offset="0%" stop-color="#E9007F" stop-opacity="1"></stop><stop data-v-fde0c5aa="" offset="100%" stop-color="#FEA134" stop-opacity="1"></stop></linearGradient></defs><rect data-v-fde0c5aa="" fill="url(#63e04cd7-ea9d-41e1-960d-82062cf3c59d)" x="0" y="0" width="300px" height="300px" class="logo-background-square"></rect><defs data-v-fde0c5aa=""><!----></defs><g data-v-fde0c5aa="" id="b7b91953-fc8f-4cc5-bea7-c5f68ad124d8" fill="#ffffff" transform="matrix(7.858971704555221,0,0,7.858971704555221,14.03979175966452,138.3763566463128)"><path d="M7.64 13.75L1.06 13.75L1.06 3.95L7.35 3.95L7.35 5.53L2.73 5.53L2.73 7.90L5.74 7.90L5.74 9.48L2.73 9.48L2.73 12.17L7.64 12.17L7.64 13.75ZM11.24 13.75L9.69 13.75L9.69 3.95L11.27 3.95L14.32 10.00L14.32 10.00Q14.57 10.43 14.67 10.67L14.67 10.67L14.67 10.67Q14.64 10.14 14.64 10.00L14.64 10.00L14.64 3.95L16.18 3.95L16.18 13.75L14.67 13.75L11.56 7.67L11.56 7.67Q11.31 7.24 11.20 7.00L11.20 7.00L11.20 7.00Q11.24 7.21 11.24 7.67L11.24 7.67L11.24 13.75ZM25.55 13.75L23.76 13.75L23.11 11.59L20.01 11.59L19.36 13.75L17.57 13.75L20.78 3.95L22.34 3.95L25.55 13.75ZM21.32 7.17L20.45 10.08L22.67 10.08L21.80 7.17L21.80 7.17Q21.66 6.72 21.56 6.08L21.56 6.08L21.56 6.08Q21.39 6.93 21.32 7.17L21.32 7.17ZM28.60 13.75L26.94 13.75L26.94 3.95L33.54 3.95L33.54 5.53L28.60 5.53L28.60 7.90L32.20 7.90L32.20 9.48L28.60 9.48L28.60 13.75Z"></path></g><defs data-v-fde0c5aa=""><!----></defs><g data-v-fde0c5aa="" id="c3ca69e5-af69-456b-b9b6-3a22f2dadb8c" stroke="none" fill="#ffffff" transform="matrix(1.1551185291834896,0,0,1.1551185291834896,94.46537346985224,37.690935326748345)"><path d="M65.42 35.552a4.481 4.481 0 0 0 1.015-2.822c0-2.503-2.045-4.539-4.571-4.539-2.52 0-4.572 2.036-4.572 4.539 0-.105.023-.201.029-.303-6.894-.593-17.354-1.442-21.307-1.542-.34-2.167-2.227-3.827-4.513-3.827-2.523 0-4.565 2.029-4.565 4.539 0 2.503 2.042 4.539 4.565 4.539.444 0 .853-.112 1.258-.23a4.479 4.479 0 0 0-1.248 3.1c0 2.513 2.046 4.542 4.565 4.542 2.526 0 4.568-2.029 4.568-4.542 0-.254-.026-.511-.069-.758l18.6 1.319c-.003.064-.02.125-.02.189 0 2.506 2.042 4.535 4.565 4.535 2.526 0 4.568-2.029 4.568-4.535.001-1.91-1.187-3.535-2.868-4.204zm-25.339 1.272a4.568 4.568 0 0 0-4.005-2.358c-.451 0-.88.085-1.295.208.629-.662 1.101-1.476 1.238-2.415 3.377.096 13.129.86 21.42 1.568l-.003-.013a4.547 4.547 0 0 0 2.731 3.124c-.305.378-.55.801-.721 1.264l-19.365-1.378zM63.721 89.377a4.54 4.54 0 0 0-4.513 4.021c-6.799.236-14.453.466-19.799.571a4.527 4.527 0 0 0 2.121-3.018c.438.139.876.276 1.36.276a4.565 4.565 0 0 0 4.357-3.188c1.4.127 3.024.277 4.562.421a4.548 4.548 0 0 0 4.479 3.687c2.522 0 4.565-2.032 4.565-4.538 0-2.507-2.043-4.543-4.565-4.543a4.538 4.538 0 0 0-4.511 3.997 857.843 857.843 0 0 0-4.323-.394c0-.013-.007-.02-.007-.029-.151.017-.303.046-.461.046 2.529 0 4.578-2.032 4.578-4.542 0-.608-.125-1.188-.345-1.719a4.553 4.553 0 0 0 4.13 2.641c2.529 0 4.574-2.032 4.574-4.538 0-2.507-2.045-4.539-4.574-4.539a4.568 4.568 0 0 0-4.081 2.522 371.71 371.71 0 0 0-6.077-1.146c.003.059.017.111.017.171a4.488 4.488 0 0 0 0 0c0-2.032-1.348-3.73-3.196-4.312l.011.003c5.201-.19 11.219-.395 15.349-.533a4.567 4.567 0 0 0 4.49 3.689c2.517 0 4.571-2.036 4.571-4.543 0-2.506-2.055-4.538-4.571-4.538-2.346 0-4.275 1.752-4.539 4.008-5.896.198-15.581.527-21.342.765-.279-1.349-1.172-2.461-2.365-3.083 1.456-.761 2.459-2.26 2.459-4.005 0-2.511-2.046-4.539-4.575-4.539-2.523 0-4.565 2.028-4.565 4.539 0 1.745 1.001 3.244 2.454 4.005-1.453.759-2.454 2.257-2.454 4.002 0 2.507 2.042 4.542 4.565 4.542a4.546 4.546 0 0 0 4.528-4.077c.872-.033 1.823-.073 2.85-.112.034-.014.072-.02.107-.032-1.701.66-2.91 2.296-2.91 4.222a4.544 4.544 0 0 0 4.555 4.539c2.1 0 3.369-1.418 4.369-3.334v.004c2 .3 3.78.698 5.836 1.097a4.47 4.47 0 0 0 .294 2.402 4.571 4.571 0 0 0-4.144-2.639 4.547 4.547 0 0 0-4.558 4.539c0 .031.01.06.01.091-1.986.205-3.527 1.639-3.932 3.546a4.592 4.592 0 0 0-1.42-.247c-2.332 0-4.256 1.732-4.539 3.969a4.56 4.56 0 0 0-1.047-.125c-2.523 0-4.565 2.032-4.565 4.539 0 2.51 2.042 4.538 4.565 4.538a4.564 4.564 0 0 0 4.318-3.05c.517-.003 1.103-.007 1.774-.02 2.633-.036 6.288-.129 10.857-.257 3.922-.114 7.843-.244 10.792-.347a4.551 4.551 0 0 0 4.478 3.673c2.526 0 4.568-2.028 4.568-4.538.003-2.508-2.039-4.54-4.565-4.54zm-22.33-18.309zM45.443 86.4c-.068-.024-.144-.037-.211-.065.068.028.143.041.211.065zM50.879 23.605a4.523 4.523 0 0 0 2.081-3.797c0-2.51-2.052-4.539-4.575-4.539a4.553 4.553 0 0 0-2.718.91 4.524 4.524 0 0 0-2.078 3.797c0 2.506 2.046 4.542 4.572 4.542a4.529 4.529 0 0 0 2.718-.913z"></path><path d="M34.445 11.083c2.52 0 4.572-2.036 4.572-4.542 0 .168-.033.326-.05.491l21.216 1.041c-.066.31-.103.632-.103.961 0 .573.118 1.113.312 1.621-.593-.283-1.234-.464-1.933-.464a4.57 4.57 0 0 0-4.474 3.59c-2.948-.293-7.434-.728-9.146-.86.005.016.007.032.012.047a4.546 4.546 0 0 0-4.363-3.262c-2.52 0-4.565 2.029-4.565 4.539 0 2.507 2.046 4.536 4.565 4.536 2.526 0 4.568-2.029 4.568-4.536 0 .026-.006.053-.006.083 1.68.135 5.447.5 8.856.836.221 2.302 2.178 4.107 4.553 4.107 2.52 0 4.559-2.036 4.559-4.539 0-.573-.136-1.107-.326-1.614a4.548 4.548 0 0 0 1.959.455c2.527 0 4.569-2.029 4.569-4.539 0-2.506-2.042-4.539-4.569-4.539-1.67 0-3.125.889-3.922 2.217l-21.803-1.07a4.571 4.571 0 0 0-4.48-3.643 4.549 4.549 0 0 0-4.562 4.542 4.549 4.549 0 0 0 4.561 4.542zM61.626 46.755c0-2.51-2.042-4.539-4.562-4.539a4.552 4.552 0 0 0-4.484 3.695l-5.73-1.485A4.559 4.559 0 0 0 42.43 41c-2.523 0-4.575 2.033-4.575 4.542 0 2.506 2.052 4.536 4.575 4.536a4.55 4.55 0 0 0 4.549-4.187l5.575 1.442c.065.501.206.974.422 1.41a4.555 4.555 0 0 0-3.19-1.297c-2.527 0-4.575 2.029-4.575 4.539 0 2.507 2.048 4.539 4.575 4.539 2.52 0 4.568-2.032 4.568-4.539a4.49 4.49 0 0 0-.481-1.989 4.565 4.565 0 0 0 3.192 1.298c2.519 0 4.561-2.036 4.561-4.539zM39.011 19.977c-2.517 0-4.562 2.036-4.562 4.542s2.045 4.539 4.562 4.539a4.574 4.574 0 0 0 4.305-3.007c2.088.223 5.14.563 8.268.917a4.543 4.543 0 0 0 4.338 3.191c2.523 0 4.562-2.036 4.562-4.539a4.548 4.548 0 0 0-4.562-4.542 4.545 4.545 0 0 0-4.559 4.472c-2.726-.31-5.661-.638-7.78-.862 0-.059.007-.112.007-.168-.001-2.508-2.05-4.543-4.579-4.543z"></path><path d="M56.734 61.083a4.564 4.564 0 0 0 4.121 2.596c2.526 0 4.574-2.032 4.574-4.539 0-2.51-2.048-4.539-4.574-4.539-2.523 0-4.565 2.029-4.565 4.539 0 .204.02.402.046.593-3.795.481-8.54 1.08-12.864 1.641 1.052-.832 1.738-2.101 1.738-3.538 0-2.51-2.043-4.542-4.565-4.542-2.523 0-4.568 2.032-4.568 4.542 0 1.853 1.123 3.443 2.727 4.147-1.006.135-1.944.26-2.789.379.026.204.062.408.062.626 0 .263-.036.514-.076.767 4.818-.659 13.273-1.736 20.733-2.672zM41.482 62.29zm1.407-.525c-.032.019-.065.035-.098.053l.098-.053zm-.659.311c-.099.038-.202.063-.305.094.103-.029.206-.057.305-.094z"></path></g><defs data-v-fde0c5aa=""><!----></defs><g data-v-fde0c5aa="" id="53887367-f66b-43ea-87c2-b4b9fef87fad" fill="#ffffff" transform="matrix(0.37228634283185885,0,0,0.37228634283185885,53.63739346727731,254.81032818210153)"><path d="M1.72 13.78L7.41 13.78L7.41 13.06L2.56 13.06L2.56 9.25L6.52 9.25L6.52 8.53L2.56 8.53L2.56 5.24L7.27 5.24L7.27 4.54L1.72 4.54ZM17.43 13.78L18.26 13.78L18.26 9.42L22.18 9.42L22.18 8.74L18.26 8.74L18.26 5.24L22.89 5.24L22.89 4.54L17.43 4.54ZM32.83 13.78L33.66 13.78L33.66 9.42L37.58 9.42L37.58 8.74L33.66 8.74L33.66 5.24L38.29 5.24L38.29 4.54L32.83 4.54ZM47.64 13.78L53.16 13.78L53.16 13.06L50.82 13.06L50.82 5.24L53.16 5.24L53.16 4.54L47.64 4.54L47.64 5.24L49.98 5.24L49.98 13.06L47.64 13.06ZM66.51 13.94C67.69 13.94 68.56 13.44 69.27 12.63L68.78 12.11C68.14 12.82 67.47 13.20 66.56 13.20C64.65 13.20 63.45 11.61 63.45 9.13C63.45 6.66 64.65 5.11 66.58 5.11C67.40 5.11 68.05 5.47 68.54 6.01L69.02 5.46C68.52 4.89 67.68 4.37 66.58 4.37C64.22 4.37 62.58 6.20 62.58 9.13C62.58 12.11 64.22 13.94 66.51 13.94ZM78.44 13.78L83.96 13.78L83.96 13.06L81.62 13.06L81.62 5.24L83.96 5.24L83.96 4.54L78.44 4.54L78.44 5.24L80.78 5.24L80.78 13.06L78.44 13.06ZM94.12 13.78L99.81 13.78L99.81 13.06L94.96 13.06L94.96 9.25L98.92 9.25L98.92 8.53L94.96 8.53L94.96 5.24L99.67 5.24L99.67 4.54L94.12 4.54ZM109.05 13.78L109.83 13.78L109.83 8.36C109.83 7.46 109.75 6.55 109.73 5.64L109.75 5.64L110.73 7.49L114.10 13.78L114.95 13.78L114.95 4.54L114.17 4.54L114.17 9.90C114.17 10.82 114.25 11.77 114.27 12.66L114.25 12.66L109.90 4.54L109.05 4.54ZM126.98 13.78L127.82 13.78L127.82 5.24L130.96 5.24L130.96 4.54L123.84 4.54L123.84 5.24L126.98 5.24ZM155.25 13.78L156.03 13.78L156.03 8.36C156.03 7.46 155.95 6.55 155.93 5.64L155.95 5.64L156.93 7.49L160.30 13.78L161.15 13.78L161.15 4.54L160.37 4.54L160.37 9.90C160.37 10.82 160.45 11.77 160.47 12.66L160.45 12.66L156.10 4.54L155.25 4.54ZM171.12 13.78L176.81 13.78L176.81 13.06L171.96 13.06L171.96 9.25L175.92 9.25L175.92 8.53L171.96 8.53L171.96 5.24L176.67 5.24L176.67 4.54L171.12 4.54ZM189.01 13.94C190.64 13.94 192.01 13.05 192.01 10.32L192.01 4.54L191.20 4.54L191.20 10.26C191.20 12.49 190.20 13.20 189.01 13.20C187.81 13.20 186.83 12.49 186.83 10.26L186.83 4.54L185.99 4.54L185.99 10.32C185.99 13.05 187.36 13.94 189.01 13.94ZM201.75 13.78L202.58 13.78L202.58 9.66L204.43 9.66L206.82 13.78L207.77 13.78L205.34 9.62C206.68 9.34 207.56 8.50 207.56 7.01C207.56 5.21 206.30 4.54 204.47 4.54L201.75 4.54ZM202.58 8.96L202.58 5.21L204.30 5.21C205.86 5.21 206.72 5.70 206.72 7.01C206.72 8.33 205.86 8.96 204.30 8.96ZM216.17 13.78L217.01 13.78L218.02 10.71L221.56 10.71L222.56 13.78L223.43 13.78L220.25 4.54L219.35 4.54ZM218.27 10.02L218.79 8.41C219.14 7.34 219.45 6.37 219.77 5.25L219.83 5.25C220.14 6.37 220.44 7.34 220.81 8.41L221.33 10.02ZM233.02 13.78L238.56 13.78L238.56 13.06L233.83 13.06L233.83 4.54L233.02 4.54ZM262.37 13.78L263.21 13.78L264.22 10.71L267.76 10.71L268.76 13.78L269.63 13.78L266.45 4.54L265.55 4.54ZM264.47 10.02L264.99 8.41C265.34 7.34 265.65 6.37 265.97 5.25L266.03 5.25C266.34 6.37 266.64 7.34 267.01 8.41L267.53 10.02ZM281.41 13.94C283.04 13.94 284.41 13.05 284.41 10.32L284.41 4.54L283.60 4.54L283.60 10.26C283.60 12.49 282.60 13.20 281.41 13.20C280.21 13.20 279.23 12.49 279.23 10.26L279.23 4.54L278.39 4.54L278.39 10.32C278.39 13.05 279.76 13.94 281.41 13.94ZM293.90 13.78L296.09 13.78C298.87 13.78 300.24 11.97 300.24 9.11C300.24 6.27 298.87 4.54 296.04 4.54L293.90 4.54ZM294.71 13.09L294.71 5.22L295.99 5.22C298.33 5.22 299.39 6.75 299.39 9.11C299.39 11.49 298.33 13.09 295.99 13.09ZM309.44 13.78L314.96 13.78L314.96 13.06L312.62 13.06L312.62 5.24L314.96 5.24L314.96 4.54L309.44 4.54L309.44 5.24L311.78 5.24L311.78 13.06L309.44 13.06ZM327.60 13.94C329.63 13.94 331.07 12.07 331.07 9.11C331.07 6.20 329.63 4.37 327.60 4.37C325.57 4.37 324.13 6.19 324.13 9.11C324.13 12.07 325.57 13.94 327.60 13.94ZM327.60 13.20C326.03 13.20 324.98 11.59 324.98 9.11C324.98 6.65 326.03 5.11 327.60 5.11C329.17 5.11 330.22 6.65 330.22 9.11C330.22 11.59 329.17 13.20 327.60 13.20ZM356.23 13.78L357.06 13.78L357.06 9.42L360.98 9.42L360.98 8.74L357.06 8.74L357.06 5.24L361.69 5.24L361.69 4.54L356.23 4.54ZM371.04 13.78L376.56 13.78L376.56 13.06L374.22 13.06L374.22 5.24L376.56 5.24L376.56 4.54L371.04 4.54L371.04 5.24L373.38 5.24L373.38 13.06L371.04 13.06ZM386.25 13.78L387.03 13.78L387.03 8.36C387.03 7.46 386.95 6.55 386.93 5.64L386.95 5.64L387.93 7.49L391.30 13.78L392.15 13.78L392.15 4.54L391.37 4.54L391.37 9.90C391.37 10.82 391.45 11.77 391.47 12.66L391.45 12.66L387.10 4.54L386.25 4.54ZM405.09 13.94C406.29 13.94 407.22 13.48 407.79 12.89L407.79 9.14L404.98 9.14L404.98 9.84L406.99 9.84L406.99 12.56C406.59 12.95 405.90 13.20 405.15 13.20C403.20 13.20 402.07 11.61 402.07 9.13C402.07 6.66 403.28 5.11 405.22 5.11C406.15 5.11 406.74 5.50 407.22 6.01L407.69 5.46C407.20 4.94 406.42 4.37 405.22 4.37C402.82 4.37 401.18 6.19 401.18 9.13C401.18 12.11 402.79 13.94 405.09 13.94ZM417.52 13.78L423.21 13.78L423.21 13.06L418.36 13.06L418.36 9.25L422.32 9.25L422.32 8.53L418.36 8.53L418.36 5.24L423.07 5.24L423.07 4.54L417.52 4.54ZM432.75 13.78L433.58 13.78L433.58 9.66L435.43 9.66L437.82 13.78L438.77 13.78L436.34 9.62C437.68 9.34 438.56 8.50 438.56 7.01C438.56 5.21 437.30 4.54 435.47 4.54L432.75 4.54ZM433.58 8.96L433.58 5.21L435.30 5.21C436.86 5.21 437.72 5.70 437.72 7.01C437.72 8.33 436.86 8.96 435.30 8.96ZM448.18 13.78L449.01 13.78L449.01 9.91L450.80 9.91C452.84 9.91 454.12 9.03 454.12 7.15C454.12 5.21 452.84 4.54 450.80 4.54L448.18 4.54ZM449.01 9.21L449.01 5.21L450.63 5.21C452.41 5.21 453.28 5.67 453.28 7.15C453.28 8.61 452.42 9.21 450.63 9.21ZM463.55 13.78L464.38 13.78L464.38 9.66L466.23 9.66L468.62 13.78L469.57 13.78L467.14 9.62C468.48 9.34 469.36 8.50 469.36 7.01C469.36 5.21 468.10 4.54 466.27 4.54L463.55 4.54ZM464.38 8.96L464.38 5.21L466.10 5.21C467.66 5.21 468.52 5.70 468.52 7.01C468.52 8.33 467.66 8.96 466.10 8.96ZM478.84 13.78L484.36 13.78L484.36 13.06L482.02 13.06L482.02 5.24L484.36 5.24L484.36 4.54L478.84 4.54L478.84 5.24L481.18 5.24L481.18 13.06L478.84 13.06ZM494.05 13.78L494.83 13.78L494.83 8.36C494.83 7.46 494.75 6.55 494.73 5.64L494.75 5.64L495.73 7.49L499.10 13.78L499.95 13.78L499.95 4.54L499.17 4.54L499.17 9.90C499.17 10.82 499.25 11.77 499.27 12.66L499.25 12.66L494.90 4.54L494.05 4.54ZM511.98 13.78L512.82 13.78L512.82 5.24L515.96 5.24L515.96 4.54L508.84 4.54L508.84 5.24L511.98 5.24Z"></path></g></svg>